<svg xmlns="http://www.w3.org/2000/svg" xmlns:xlink="http://www.w3.org/1999/xlink" width="400" zoomAndPan="magnify" viewBox="0 0 300 101.999999" height="136" preserveAspectRatio="xMidYMid meet" version="1.0"><defs><g/></defs><path fill="#2596f2" d="M 52.6875 77.632812 C 52.273438 77.441406 52.003906 77.339844 51.757812 77.199219 C 46.636719 74.257812 41.523438 71.300781 36.394531 68.378906 C 35.816406 68.050781 35.648438 67.667969 35.648438 67.039062 C 35.664062 56.496094 35.648438 45.953125 35.691406 35.410156 C 35.691406 34.96875 36.050781 34.335938 36.429688 34.109375 C 41.035156 31.398438 46.121094 28.734375 50.777344 26.109375 C 51.132812 25.910156 50.898438 25.933594 51.261719 26.140625 C 55.882812 28.75 60.921875 31.871094 65.535156 34.5 C 66.125 34.835938 66.351562 34.773438 66.347656 35.460938 C 66.320312 40.734375 66.316406 46.003906 66.355469 51.277344 C 66.359375 52.039062 66.054688 52.398438 65.445312 52.746094 C 61.511719 54.980469 57.609375 57.273438 53.671875 59.488281 C 52.90625 59.917969 52.664062 60.40625 52.667969 61.261719 C 52.710938 66.269531 52.691406 71.28125 52.691406 76.289062 C 52.6875 76.691406 52.6875 77.089844 52.6875 77.632812 Z M 52.824219 30.722656 C 52.757812 31.015625 52.699219 31.152344 52.699219 31.285156 C 52.691406 34.757812 52.667969 38.230469 52.722656 41.703125 C 52.726562 42.074219 53.105469 42.574219 53.449219 42.78125 C 55.71875 44.148438 58.027344 45.453125 60.324219 46.773438 C 61.121094 47.230469 61.929688 47.667969 62.722656 48.109375 C 62.828125 47.949219 62.898438 47.894531 62.898438 47.835938 C 62.914062 44.25 62.941406 40.667969 62.898438 37.085938 C 62.894531 36.753906 62.507812 36.3125 62.179688 36.113281 C 60.425781 35.046875 58.636719 34.039062 56.855469 33.019531 C 55.546875 32.265625 54.226562 31.523438 52.824219 30.722656 Z M 49.289062 56.109375 C 49.289062 52.179688 49.304688 48.523438 49.257812 44.863281 C 49.253906 44.566406 48.886719 44.167969 48.585938 43.988281 C 46.269531 42.613281 43.929688 41.285156 41.59375 39.945312 C 40.828125 39.503906 40.058594 39.066406 39.257812 38.613281 C 39.160156 38.84375 39.085938 38.9375 39.085938 39.03125 C 39.074219 42.585938 39.050781 46.136719 39.089844 49.6875 C 39.09375 49.996094 39.4375 50.410156 39.738281 50.59375 C 41.105469 51.4375 42.511719 52.21875 43.902344 53.019531 C 45.613281 54.003906 47.324219 54.984375 49.289062 56.109375 Z M 49.152344 71.703125 C 49.21875 71.464844 49.277344 71.363281 49.277344 71.261719 C 49.285156 67.753906 49.3125 64.246094 49.253906 60.742188 C 49.25 60.351562 48.808594 59.835938 48.433594 59.609375 C 45.644531 57.949219 42.824219 56.347656 40.007812 54.734375 C 39.765625 54.59375 39.492188 54.503906 39.183594 54.367188 C 39.128906 54.597656 39.070312 54.738281 39.070312 54.878906 C 39.0625 58.347656 39.039062 61.816406 39.09375 65.285156 C 39.097656 65.652344 39.488281 66.144531 39.835938 66.355469 C 42.167969 67.753906 44.539062 69.097656 46.898438 70.453125 C 47.632812 70.871094 48.375 71.273438 49.152344 71.703125 Z M 52.761719 56.074219 C 55.601562 54.4375 58.285156 52.890625 61.183594 51.21875 C 58.273438 49.550781 55.589844 48.007812 52.761719 46.382812 C 52.761719 49.695312 52.761719 52.769531 52.761719 56.074219 Z M 40.777344 35.519531 C 43.6875 37.1875 46.398438 38.738281 49.195312 40.34375 C 49.195312 37.019531 49.195312 33.949219 49.195312 30.683594 C 46.363281 32.3125 43.6875 33.847656 40.777344 35.519531 Z M 40.777344 35.519531 " fill-opacity="1" fill-rule="nonzero"/><g fill="#000000" fill-opacity="1"><g transform="translate(79.117841, 63.881944)"><g><path d="M 17.5625 -15.28125 C 17.5625 -14.175781 17.300781 -13.128906 16.78125 -12.140625 C 16.257812 -11.160156 15.425781 -10.363281 14.28125 -9.75 C 13.132812 -9.132812 11.660156 -8.828125 9.859375 -8.828125 L 5.921875 -8.828125 L 5.921875 0 L 2.34375 0 L 2.34375 -21.765625 L 9.859375 -21.765625 C 11.535156 -21.765625 12.953125 -21.476562 14.109375 -20.90625 C 15.265625 -20.332031 16.128906 -19.550781 16.703125 -18.5625 C 17.273438 -17.582031 17.5625 -16.488281 17.5625 -15.28125 Z M 9.859375 -11.734375 C 11.222656 -11.734375 12.238281 -12.039062 12.90625 -12.65625 C 13.570312 -13.28125 13.90625 -14.15625 13.90625 -15.28125 C 13.90625 -17.65625 12.554688 -18.84375 9.859375 -18.84375 L 5.921875 -18.84375 L 5.921875 -11.734375 Z M 9.859375 -11.734375 "/></g></g></g><g fill="#000000" fill-opacity="1"><g transform="translate(97.874038, 63.881944)"><g><path d="M 5.921875 -14.75 C 6.441406 -15.625 7.132812 -16.304688 8 -16.796875 C 8.863281 -17.285156 9.890625 -17.53125 11.078125 -17.53125 L 11.078125 -13.84375 L 10.171875 -13.84375 C 8.773438 -13.84375 7.71875 -13.484375 7 -12.765625 C 6.28125 -12.054688 5.921875 -10.828125 5.921875 -9.078125 L 5.921875 0 L 2.34375 0 L 2.34375 -17.25 L 5.921875 -17.25 Z M 5.921875 -14.75 "/></g></g></g><g fill="#000000" fill-opacity="1"><g transform="translate(110.02331, 63.881944)"><g><path d="M 9.828125 0.28125 C 8.203125 0.28125 6.726562 -0.0859375 5.40625 -0.828125 C 4.09375 -1.566406 3.0625 -2.609375 2.3125 -3.953125 C 1.5625 -5.304688 1.1875 -6.867188 1.1875 -8.640625 C 1.1875 -10.390625 1.570312 -11.941406 2.34375 -13.296875 C 3.113281 -14.660156 4.164062 -15.707031 5.5 -16.4375 C 6.84375 -17.164062 8.335938 -17.53125 9.984375 -17.53125 C 11.640625 -17.53125 13.132812 -17.164062 14.46875 -16.4375 C 15.800781 -15.707031 16.851562 -14.660156 17.625 -13.296875 C 18.394531 -11.941406 18.78125 -10.390625 18.78125 -8.640625 C 18.78125 -6.890625 18.382812 -5.332031 17.59375 -3.96875 C 16.800781 -2.613281 15.722656 -1.566406 14.359375 -0.828125 C 12.992188 -0.0859375 11.484375 0.28125 9.828125 0.28125 Z M 9.828125 -2.8125 C 10.742188 -2.8125 11.601562 -3.03125 12.40625 -3.46875 C 13.21875 -3.914062 13.875 -4.578125 14.375 -5.453125 C 14.875 -6.328125 15.125 -7.390625 15.125 -8.640625 C 15.125 -9.890625 14.882812 -10.945312 14.40625 -11.8125 C 13.925781 -12.6875 13.285156 -13.34375 12.484375 -13.78125 C 11.691406 -14.21875 10.835938 -14.4375 9.921875 -14.4375 C 9.003906 -14.4375 8.15625 -14.21875 7.375 -13.78125 C 6.59375 -13.34375 5.972656 -12.6875 5.515625 -11.8125 C 5.054688 -10.945312 4.828125 -9.890625 4.828125 -8.640625 C 4.828125 -6.785156 5.300781 -5.347656 6.25 -4.328125 C 7.195312 -3.316406 8.390625 -2.8125 9.828125 -2.8125 Z M 9.828125 -2.8125 "/></g></g></g><g fill="#000000" fill-opacity="1"><g transform="translate(130.125952, 63.881944)"><g><path d="M 1.15625 -8.703125 C 1.15625 -10.429688 1.515625 -11.960938 2.234375 -13.296875 C 2.953125 -14.640625 3.929688 -15.679688 5.171875 -16.421875 C 6.421875 -17.160156 7.804688 -17.53125 9.328125 -17.53125 C 10.453125 -17.53125 11.5625 -17.285156 12.65625 -16.796875 C 13.757812 -16.304688 14.632812 -15.65625 15.28125 -14.84375 L 15.28125 -23.171875 L 18.875 -23.171875 L 18.875 0 L 15.28125 0 L 15.28125 -2.59375 C 14.695312 -1.757812 13.882812 -1.070312 12.84375 -0.53125 C 11.8125 0.0078125 10.628906 0.28125 9.296875 0.28125 C 7.796875 0.28125 6.421875 -0.0976562 5.171875 -0.859375 C 3.929688 -1.617188 2.953125 -2.679688 2.234375 -4.046875 C 1.515625 -5.421875 1.15625 -6.972656 1.15625 -8.703125 Z M 15.28125 -8.640625 C 15.28125 -9.828125 15.035156 -10.859375 14.546875 -11.734375 C 14.054688 -12.617188 13.410156 -13.289062 12.609375 -13.75 C 11.816406 -14.207031 10.960938 -14.4375 10.046875 -14.4375 C 9.128906 -14.4375 8.273438 -14.210938 7.484375 -13.765625 C 6.691406 -13.316406 6.050781 -12.65625 5.5625 -11.78125 C 5.070312 -10.914062 4.828125 -9.890625 4.828125 -8.703125 C 4.828125 -7.515625 5.070312 -6.472656 5.5625 -5.578125 C 6.050781 -4.679688 6.695312 -3.992188 7.5 -3.515625 C 8.300781 -3.046875 9.148438 -2.8125 10.046875 -2.8125 C 10.960938 -2.8125 11.816406 -3.039062 12.609375 -3.5 C 13.410156 -3.96875 14.054688 -4.644531 14.546875 -5.53125 C 15.035156 -6.414062 15.28125 -7.453125 15.28125 -8.640625 Z M 15.28125 -8.640625 "/></g></g></g><g fill="#000000" fill-opacity="1"><g transform="translate(151.48109, 63.881944)"><g><path d="M 4.171875 -19.53125 C 3.515625 -19.53125 2.96875 -19.75 2.53125 -20.1875 C 2.09375 -20.632812 1.875 -21.179688 1.875 -21.828125 C 1.875 -22.472656 2.09375 -23.015625 2.53125 -23.453125 C 2.96875 -23.890625 3.515625 -24.109375 4.171875 -24.109375 C 4.796875 -24.109375 5.328125 -23.890625 5.765625 -23.453125 C 6.203125 -23.015625 6.421875 -22.472656 6.421875 -21.828125 C 6.421875 -21.179688 6.203125 -20.632812 5.765625 -20.1875 C 5.328125 -19.75 4.796875 -19.53125 4.171875 -19.53125 Z M 5.921875 -17.25 L 5.921875 0 L 2.34375 0 L 2.34375 -17.25 Z M 5.921875 -17.25 "/></g></g></g><g fill="#000000" fill-opacity="1"><g transform="translate(159.872864, 63.881944)"><g><path d="M 9.296875 -17.53125 C 10.628906 -17.53125 11.8125 -17.265625 12.84375 -16.734375 C 13.882812 -16.203125 14.695312 -15.539062 15.28125 -14.75 L 15.28125 -17.25 L 18.875 -17.25 L 18.875 0.28125 C 18.875 1.863281 18.539062 3.273438 17.875 4.515625 C 17.207031 5.765625 16.242188 6.742188 14.984375 7.453125 C 13.722656 8.160156 12.210938 8.515625 10.453125 8.515625 C 8.117188 8.515625 6.175781 7.96875 4.625 6.875 C 3.082031 5.78125 2.207031 4.289062 2 2.40625 L 5.546875 2.40625 C 5.816406 3.300781 6.394531 4.023438 7.28125 4.578125 C 8.164062 5.140625 9.222656 5.421875 10.453125 5.421875 C 11.898438 5.421875 13.066406 4.976562 13.953125 4.09375 C 14.835938 3.21875 15.28125 1.945312 15.28125 0.28125 L 15.28125 -2.59375 C 14.675781 -1.78125 13.851562 -1.097656 12.8125 -0.546875 C 11.78125 0.00390625 10.609375 0.28125 9.296875 0.28125 C 7.796875 0.28125 6.421875 -0.0976562 5.171875 -0.859375 C 3.929688 -1.617188 2.953125 -2.679688 2.234375 -4.046875 C 1.515625 -5.421875 1.15625 -6.972656 1.15625 -8.703125 C 1.15625 -10.429688 1.515625 -11.960938 2.234375 -13.296875 C 2.953125 -14.640625 3.929688 -15.679688 5.171875 -16.421875 C 6.421875 -17.160156 7.796875 -17.53125 9.296875 -17.53125 Z M 15.28125 -8.640625 C 15.28125 -9.828125 15.035156 -10.859375 14.546875 -11.734375 C 14.054688 -12.617188 13.410156 -13.289062 12.609375 -13.75 C 11.816406 -14.207031 10.960938 -14.4375 10.046875 -14.4375 C 9.128906 -14.4375 8.273438 -14.210938 7.484375 -13.765625 C 6.691406 -13.316406 6.050781 -12.65625 5.5625 -11.78125 C 5.070312 -10.914062 4.828125 -9.890625 4.828125 -8.703125 C 4.828125 -7.515625 5.070312 -6.472656 5.5625 -5.578125 C 6.050781 -4.679688 6.695312 -3.992188 7.5 -3.515625 C 8.300781 -3.046875 9.148438 -2.8125 10.046875 -2.8125 C 10.960938 -2.8125 11.816406 -3.039062 12.609375 -3.5 C 13.410156 -3.96875 14.054688 -4.644531 14.546875 -5.53125 C 15.035156 -6.414062 15.28125 -7.453125 15.28125 -8.640625 Z M 15.28125 -8.640625 "/></g></g></g><g fill="#000000" fill-opacity="1"><g transform="translate(181.228008, 63.881944)"><g><path d="M 1.15625 -8.703125 C 1.15625 -10.429688 1.515625 -11.960938 2.234375 -13.296875 C 2.953125 -14.640625 3.929688 -15.679688 5.171875 -16.421875 C 6.421875 -17.160156 7.796875 -17.53125 9.296875 -17.53125 C 10.648438 -17.53125 11.832031 -17.265625 12.84375 -16.734375 C 13.863281 -16.203125 14.675781 -15.539062 15.28125 -14.75 L 15.28125 -17.25 L 18.875 -17.25 L 18.875 0 L 15.28125 0 L 15.28125 -2.5625 C 14.675781 -1.75 13.847656 -1.070312 12.796875 -0.53125 C 11.753906 0.0078125 10.566406 0.28125 9.234375 0.28125 C 7.753906 0.28125 6.394531 -0.0976562 5.15625 -0.859375 C 3.925781 -1.617188 2.953125 -2.679688 2.234375 -4.046875 C 1.515625 -5.421875 1.15625 -6.972656 1.15625 -8.703125 Z M 15.28125 -8.640625 C 15.28125 -9.828125 15.035156 -10.859375 14.546875 -11.734375 C 14.054688 -12.617188 13.410156 -13.289062 12.609375 -13.75 C 11.816406 -14.207031 10.960938 -14.4375 10.046875 -14.4375 C 9.128906 -14.4375 8.273438 -14.210938 7.484375 -13.765625 C 6.691406 -13.316406 6.050781 -12.65625 5.5625 -11.78125 C 5.070312 -10.914062 4.828125 -9.890625 4.828125 -8.703125 C 4.828125 -7.515625 5.070312 -6.472656 5.5625 -5.578125 C 6.050781 -4.679688 6.695312 -3.992188 7.5 -3.515625 C 8.300781 -3.046875 9.148438 -2.8125 10.046875 -2.8125 C 10.960938 -2.8125 11.816406 -3.039062 12.609375 -3.5 C 13.410156 -3.96875 14.054688 -4.644531 14.546875 -5.53125 C 15.035156 -6.414062 15.28125 -7.453125 15.28125 -8.640625 Z M 15.28125 -8.640625 "/></g></g></g><g fill="#000000" fill-opacity="1"><g transform="translate(202.583151, 63.881944)"><g><path d="M 5.921875 -23.171875 L 5.921875 0 L 2.34375 0 L 2.34375 -23.171875 Z M 5.921875 -23.171875 "/></g></g></g><g fill="#000000" fill-opacity="1"><g transform="translate(210.974931, 63.881944)"><g/></g></g><g fill="#000000" fill-opacity="1"><g transform="translate(219.241468, 63.881944)"><g><path d="M 15.46875 -4.453125 L 6.359375 -4.453125 L 4.796875 0 L 1.0625 0 L 8.859375 -21.796875 L 13 -21.796875 L 20.796875 0 L 17.03125 0 Z M 14.46875 -7.359375 L 10.921875 -17.46875 L 7.359375 -7.359375 Z M 14.46875 -7.359375 "/></g></g></g><g fill="#000000" fill-opacity="1"><g transform="translate(241.191543, 63.881944)"><g><path d="M 5.921875 -21.765625 L 5.921875 0 L 2.34375 0 L 2.34375 -21.765625 Z M 5.921875 -21.765625 "/></g></g></g></svg>