<svg xmlns="http://www.w3.org/2000/svg" xmlns:xlink="http://www.w3.org/1999/xlink" width="161" zoomAndPan="magnify" viewBox="0 0 120.75 113.999999" height="152" preserveAspectRatio="xMidYMid meet" version="1.0"><defs><g/></defs><path fill="#2596f2" d="M 62.117188 77.589844 C 61.703125 77.398438 61.433594 77.296875 61.1875 77.15625 C 56.078125 74.21875 50.976562 71.269531 45.855469 68.355469 C 45.28125 68.027344 45.113281 67.644531 45.113281 67.019531 C 45.128906 56.496094 45.113281 45.976562 45.15625 35.457031 C 45.15625 35.011719 45.511719 34.382812 45.894531 34.15625 C 50.488281 31.453125 55.5625 28.792969 60.210938 26.171875 C 60.5625 25.972656 60.332031 26 60.695312 26.203125 C 65.308594 28.808594 70.335938 31.925781 74.9375 34.546875 C 75.527344 34.882812 75.753906 34.820312 75.75 35.507812 C 75.722656 40.765625 75.71875 46.027344 75.753906 51.289062 C 75.761719 52.046875 75.457031 52.410156 74.847656 52.757812 C 70.921875 54.984375 67.03125 57.273438 63.097656 59.484375 C 62.335938 59.910156 62.09375 60.398438 62.097656 61.25 C 62.140625 66.25 62.117188 71.25 62.117188 76.25 C 62.117188 76.648438 62.117188 77.050781 62.117188 77.589844 Z M 62.253906 30.777344 C 62.1875 31.070312 62.128906 31.203125 62.128906 31.339844 C 62.121094 34.804688 62.097656 38.269531 62.152344 41.734375 C 62.15625 42.105469 62.535156 42.601562 62.878906 42.8125 C 65.144531 44.175781 67.445312 45.476562 69.738281 46.792969 C 70.535156 47.25 71.339844 47.6875 72.132812 48.128906 C 72.238281 47.96875 72.308594 47.914062 72.308594 47.855469 C 72.324219 44.277344 72.351562 40.703125 72.308594 37.125 C 72.304688 36.792969 71.917969 36.355469 71.589844 36.15625 C 69.839844 35.09375 68.054688 34.085938 66.277344 33.066406 C 64.96875 32.316406 63.652344 31.574219 62.253906 30.777344 Z M 58.726562 56.109375 C 58.726562 52.191406 58.742188 48.539062 58.695312 44.890625 C 58.691406 44.589844 58.324219 44.195312 58.023438 44.015625 C 55.710938 42.644531 53.375 41.316406 51.046875 39.980469 C 50.28125 39.539062 49.515625 39.105469 48.714844 38.648438 C 48.617188 38.878906 48.542969 38.972656 48.542969 39.070312 C 48.53125 42.613281 48.507812 46.160156 48.546875 49.703125 C 48.550781 50.011719 48.894531 50.421875 49.195312 50.605469 C 50.558594 51.449219 51.960938 52.230469 53.351562 53.027344 C 55.058594 54.011719 56.765625 54.988281 58.726562 56.109375 Z M 58.589844 71.671875 C 58.65625 71.433594 58.710938 71.332031 58.710938 71.230469 C 58.722656 67.730469 58.75 64.234375 58.691406 60.734375 C 58.683594 60.347656 58.246094 59.828125 57.871094 59.605469 C 55.089844 57.945312 52.273438 56.347656 49.464844 54.738281 C 49.222656 54.597656 48.949219 54.507812 48.640625 54.371094 C 48.585938 54.605469 48.527344 54.742188 48.527344 54.882812 C 48.519531 58.34375 48.496094 61.808594 48.550781 65.269531 C 48.554688 65.632812 48.945312 66.128906 49.292969 66.335938 C 51.621094 67.730469 53.984375 69.074219 56.339844 70.425781 C 57.070312 70.84375 57.8125 71.242188 58.589844 71.671875 Z M 62.191406 56.074219 C 65.023438 54.441406 67.703125 52.898438 70.597656 51.230469 C 67.691406 49.566406 65.011719 48.027344 62.191406 46.40625 C 62.191406 49.710938 62.191406 52.777344 62.191406 56.074219 Z M 50.234375 35.5625 C 53.136719 37.226562 55.839844 38.777344 58.632812 40.378906 C 58.632812 37.0625 58.632812 34 58.632812 30.738281 C 55.804688 32.363281 53.136719 33.894531 50.234375 35.5625 Z M 50.234375 35.5625 " fill-opacity="1" fill-rule="nonzero"/><g fill="#000000" fill-opacity="1"><g transform="translate(11.41014, 99.121148)"><g><path d="M 10.078125 -8.765625 C 10.078125 -8.128906 9.925781 -7.53125 9.625 -6.96875 C 9.320312 -6.40625 8.84375 -5.945312 8.1875 -5.59375 C 7.53125 -5.238281 6.6875 -5.0625 5.65625 -5.0625 L 3.390625 -5.0625 L 3.390625 0 L 1.34375 0 L 1.34375 -12.484375 L 5.65625 -12.484375 C 6.613281 -12.484375 7.421875 -12.316406 8.078125 -11.984375 C 8.742188 -11.648438 9.242188 -11.203125 9.578125 -10.640625 C 9.910156 -10.078125 10.078125 -9.453125 10.078125 -8.765625 Z M 5.65625 -6.734375 C 6.4375 -6.734375 7.015625 -6.910156 7.390625 -7.265625 C 7.773438 -7.617188 7.96875 -8.117188 7.96875 -8.765625 C 7.96875 -10.128906 7.195312 -10.8125 5.65625 -10.8125 L 3.390625 -10.8125 L 3.390625 -6.734375 Z M 5.65625 -6.734375 "/></g></g></g><g fill="#000000" fill-opacity="1"><g transform="translate(22.162929, 99.121148)"><g><path d="M 3.390625 -8.453125 C 3.691406 -8.953125 4.085938 -9.34375 4.578125 -9.625 C 5.078125 -9.90625 5.671875 -10.046875 6.359375 -10.046875 L 6.359375 -7.9375 L 5.828125 -7.9375 C 5.023438 -7.9375 4.414062 -7.734375 4 -7.328125 C 3.59375 -6.921875 3.390625 -6.210938 3.390625 -5.203125 L 3.390625 0 L 1.34375 0 L 1.34375 -9.890625 L 3.390625 -9.890625 Z M 3.390625 -8.453125 "/></g></g></g><g fill="#000000" fill-opacity="1"><g transform="translate(29.128023, 99.121148)"><g><path d="M 5.640625 0.15625 C 4.703125 0.15625 3.851562 -0.0507812 3.09375 -0.46875 C 2.34375 -0.894531 1.753906 -1.492188 1.328125 -2.265625 C 0.898438 -3.035156 0.6875 -3.929688 0.6875 -4.953125 C 0.6875 -5.960938 0.90625 -6.851562 1.34375 -7.625 C 1.789062 -8.40625 2.394531 -9.003906 3.15625 -9.421875 C 3.925781 -9.835938 4.785156 -10.046875 5.734375 -10.046875 C 6.671875 -10.046875 7.519531 -9.835938 8.28125 -9.421875 C 9.050781 -9.003906 9.65625 -8.40625 10.09375 -7.625 C 10.539062 -6.851562 10.765625 -5.960938 10.765625 -4.953125 C 10.765625 -3.953125 10.535156 -3.0625 10.078125 -2.28125 C 9.628906 -1.5 9.015625 -0.894531 8.234375 -0.46875 C 7.453125 -0.0507812 6.585938 0.15625 5.640625 0.15625 Z M 5.640625 -1.609375 C 6.160156 -1.609375 6.648438 -1.734375 7.109375 -1.984375 C 7.578125 -2.242188 7.953125 -2.625 8.234375 -3.125 C 8.523438 -3.625 8.671875 -4.234375 8.671875 -4.953125 C 8.671875 -5.671875 8.53125 -6.273438 8.25 -6.765625 C 7.976562 -7.265625 7.613281 -7.640625 7.15625 -7.890625 C 6.707031 -8.148438 6.21875 -8.28125 5.6875 -8.28125 C 5.164062 -8.28125 4.679688 -8.148438 4.234375 -7.890625 C 3.785156 -7.640625 3.425781 -7.265625 3.15625 -6.765625 C 2.894531 -6.273438 2.765625 -5.671875 2.765625 -4.953125 C 2.765625 -3.890625 3.035156 -3.066406 3.578125 -2.484375 C 4.128906 -1.898438 4.816406 -1.609375 5.640625 -1.609375 Z M 5.640625 -1.609375 "/></g></g></g><g fill="#000000" fill-opacity="1"><g transform="translate(40.652707, 99.121148)"><g><path d="M 0.671875 -4.984375 C 0.671875 -5.984375 0.875 -6.863281 1.28125 -7.625 C 1.695312 -8.394531 2.257812 -8.988281 2.96875 -9.40625 C 3.6875 -9.832031 4.476562 -10.046875 5.34375 -10.046875 C 5.988281 -10.046875 6.625 -9.90625 7.25 -9.625 C 7.882812 -9.34375 8.390625 -8.972656 8.765625 -8.515625 L 8.765625 -13.28125 L 10.828125 -13.28125 L 10.828125 0 L 8.765625 0 L 8.765625 -1.484375 C 8.429688 -1.003906 7.96875 -0.609375 7.375 -0.296875 C 6.78125 0.00390625 6.097656 0.15625 5.328125 0.15625 C 4.472656 0.15625 3.6875 -0.0625 2.96875 -0.5 C 2.257812 -0.9375 1.695312 -1.546875 1.28125 -2.328125 C 0.875 -3.109375 0.671875 -3.992188 0.671875 -4.984375 Z M 8.765625 -4.953125 C 8.765625 -5.640625 8.625 -6.234375 8.34375 -6.734375 C 8.0625 -7.234375 7.691406 -7.613281 7.234375 -7.875 C 6.773438 -8.144531 6.285156 -8.28125 5.765625 -8.28125 C 5.234375 -8.28125 4.738281 -8.148438 4.28125 -7.890625 C 3.832031 -7.628906 3.46875 -7.25 3.1875 -6.75 C 2.90625 -6.257812 2.765625 -5.671875 2.765625 -4.984375 C 2.765625 -4.304688 2.90625 -3.707031 3.1875 -3.1875 C 3.46875 -2.675781 3.835938 -2.285156 4.296875 -2.015625 C 4.753906 -1.742188 5.242188 -1.609375 5.765625 -1.609375 C 6.285156 -1.609375 6.773438 -1.738281 7.234375 -2 C 7.691406 -2.269531 8.0625 -2.660156 8.34375 -3.171875 C 8.625 -3.679688 8.765625 -4.273438 8.765625 -4.953125 Z M 8.765625 -4.953125 "/></g></g></g><g fill="#000000" fill-opacity="1"><g transform="translate(52.895443, 99.121148)"><g><path d="M 2.390625 -11.203125 C 2.015625 -11.203125 1.703125 -11.328125 1.453125 -11.578125 C 1.203125 -11.828125 1.078125 -12.140625 1.078125 -12.515625 C 1.078125 -12.878906 1.203125 -13.1875 1.453125 -13.4375 C 1.703125 -13.695312 2.015625 -13.828125 2.390625 -13.828125 C 2.742188 -13.828125 3.046875 -13.695312 3.296875 -13.4375 C 3.554688 -13.1875 3.6875 -12.878906 3.6875 -12.515625 C 3.6875 -12.140625 3.554688 -11.828125 3.296875 -11.578125 C 3.046875 -11.328125 2.742188 -11.203125 2.390625 -11.203125 Z M 3.390625 -9.890625 L 3.390625 0 L 1.34375 0 L 1.34375 -9.890625 Z M 3.390625 -9.890625 "/></g></g></g><g fill="#000000" fill-opacity="1"><g transform="translate(57.706403, 99.121148)"><g><path d="M 5.328125 -10.046875 C 6.097656 -10.046875 6.78125 -9.894531 7.375 -9.59375 C 7.96875 -9.289062 8.429688 -8.910156 8.765625 -8.453125 L 8.765625 -9.890625 L 10.828125 -9.890625 L 10.828125 0.15625 C 10.828125 1.070312 10.632812 1.882812 10.25 2.59375 C 9.863281 3.300781 9.304688 3.859375 8.578125 4.265625 C 7.859375 4.679688 7 4.890625 6 4.890625 C 4.65625 4.890625 3.539062 4.570312 2.65625 3.9375 C 1.769531 3.3125 1.269531 2.457031 1.15625 1.375 L 3.171875 1.375 C 3.328125 1.894531 3.660156 2.3125 4.171875 2.625 C 4.679688 2.945312 5.289062 3.109375 6 3.109375 C 6.820312 3.109375 7.488281 2.851562 8 2.34375 C 8.507812 1.84375 8.765625 1.113281 8.765625 0.15625 L 8.765625 -1.484375 C 8.410156 -1.023438 7.9375 -0.632812 7.34375 -0.3125 C 6.757812 0 6.085938 0.15625 5.328125 0.15625 C 4.472656 0.15625 3.6875 -0.0625 2.96875 -0.5 C 2.257812 -0.9375 1.695312 -1.546875 1.28125 -2.328125 C 0.875 -3.109375 0.671875 -3.992188 0.671875 -4.984375 C 0.671875 -5.984375 0.875 -6.863281 1.28125 -7.625 C 1.695312 -8.394531 2.257812 -8.988281 2.96875 -9.40625 C 3.6875 -9.832031 4.472656 -10.046875 5.328125 -10.046875 Z M 8.765625 -4.953125 C 8.765625 -5.640625 8.625 -6.234375 8.34375 -6.734375 C 8.0625 -7.234375 7.691406 -7.613281 7.234375 -7.875 C 6.773438 -8.144531 6.285156 -8.28125 5.765625 -8.28125 C 5.234375 -8.28125 4.738281 -8.148438 4.28125 -7.890625 C 3.832031 -7.628906 3.46875 -7.25 3.1875 -6.75 C 2.90625 -6.257812 2.765625 -5.671875 2.765625 -4.984375 C 2.765625 -4.304688 2.90625 -3.707031 3.1875 -3.1875 C 3.46875 -2.675781 3.835938 -2.285156 4.296875 -2.015625 C 4.753906 -1.742188 5.242188 -1.609375 5.765625 -1.609375 C 6.285156 -1.609375 6.773438 -1.738281 7.234375 -2 C 7.691406 -2.269531 8.0625 -2.660156 8.34375 -3.171875 C 8.625 -3.679688 8.765625 -4.273438 8.765625 -4.953125 Z M 8.765625 -4.953125 "/></g></g></g><g fill="#000000" fill-opacity="1"><g transform="translate(69.949139, 99.121148)"><g><path d="M 0.671875 -4.984375 C 0.671875 -5.984375 0.875 -6.863281 1.28125 -7.625 C 1.695312 -8.394531 2.257812 -8.988281 2.96875 -9.40625 C 3.6875 -9.832031 4.472656 -10.046875 5.328125 -10.046875 C 6.109375 -10.046875 6.785156 -9.894531 7.359375 -9.59375 C 7.941406 -9.289062 8.410156 -8.910156 8.765625 -8.453125 L 8.765625 -9.890625 L 10.828125 -9.890625 L 10.828125 0 L 8.765625 0 L 8.765625 -1.46875 C 8.410156 -1 7.929688 -0.609375 7.328125 -0.296875 C 6.734375 0.00390625 6.054688 0.15625 5.296875 0.15625 C 4.441406 0.15625 3.660156 -0.0625 2.953125 -0.5 C 2.253906 -0.9375 1.695312 -1.546875 1.28125 -2.328125 C 0.875 -3.109375 0.671875 -3.992188 0.671875 -4.984375 Z M 8.765625 -4.953125 C 8.765625 -5.640625 8.625 -6.234375 8.34375 -6.734375 C 8.0625 -7.234375 7.691406 -7.613281 7.234375 -7.875 C 6.773438 -8.144531 6.285156 -8.28125 5.765625 -8.28125 C 5.234375 -8.28125 4.738281 -8.148438 4.28125 -7.890625 C 3.832031 -7.628906 3.46875 -7.25 3.1875 -6.75 C 2.90625 -6.257812 2.765625 -5.671875 2.765625 -4.984375 C 2.765625 -4.304688 2.90625 -3.707031 3.1875 -3.1875 C 3.46875 -2.675781 3.835938 -2.285156 4.296875 -2.015625 C 4.753906 -1.742188 5.242188 -1.609375 5.765625 -1.609375 C 6.285156 -1.609375 6.773438 -1.738281 7.234375 -2 C 7.691406 -2.269531 8.0625 -2.660156 8.34375 -3.171875 C 8.625 -3.679688 8.765625 -4.273438 8.765625 -4.953125 Z M 8.765625 -4.953125 "/></g></g></g><g fill="#000000" fill-opacity="1"><g transform="translate(82.191875, 99.121148)"><g><path d="M 3.390625 -13.28125 L 3.390625 0 L 1.34375 0 L 1.34375 -13.28125 Z M 3.390625 -13.28125 "/></g></g></g><g fill="#000000" fill-opacity="1"><g transform="translate(87.002835, 99.121148)"><g/></g></g><g fill="#000000" fill-opacity="1"><g transform="translate(91.741983, 99.121148)"><g><path d="M 8.875 -2.546875 L 3.640625 -2.546875 L 2.75 0 L 0.609375 0 L 5.078125 -12.5 L 7.453125 -12.5 L 11.921875 0 L 9.765625 0 Z M 8.296875 -4.21875 L 6.265625 -10.015625 L 4.21875 -4.21875 Z M 8.296875 -4.21875 "/></g></g></g><g fill="#000000" fill-opacity="1"><g transform="translate(104.32579, 99.121148)"><g><path d="M 3.390625 -12.484375 L 3.390625 0 L 1.34375 0 L 1.34375 -12.484375 Z M 3.390625 -12.484375 "/></g></g></g></svg>