<?xml version="1.0" encoding="utf-8"?>
<!-- Generator: Adobe Illustrator 26.0.1, SVG Export Plug-In . SVG Version: 6.00 Build 0)  -->
<svg version="1.1" id="Layer_1" xmlns="http://www.w3.org/2000/svg" xmlns:xlink="http://www.w3.org/1999/xlink" x="0px" y="0px"
	 viewBox="0 0 1080 1080" style="enable-background:new 0 0 1080 1080;" xml:space="preserve">
<style type="text/css">
	.st0{fill:#2596F2;}
</style>
<path class="st0" d="M557.88,822c-4.39-2.03-7.25-3.11-9.87-4.61C493.8,786.24,439.68,754.93,385.35,724
	c-6.12-3.48-7.91-7.53-7.9-14.17c0.16-111.63,0.01-223.26,0.45-334.89c0.02-4.7,3.8-11.4,7.83-13.77
	c48.76-28.71,102.61-56.92,151.9-84.72c3.76-2.12,1.3-1.85,5.16,0.33c48.93,27.63,102.28,60.69,151.1,88.52
	c6.27,3.57,8.66,2.89,8.63,10.18c-0.3,55.81-0.35,111.63,0.05,167.44c0.06,8.07-3.16,11.9-9.64,15.58
	c-41.63,23.66-82.93,47.91-124.66,71.38c-8.07,4.54-10.66,9.71-10.59,18.76c0.43,53.04,0.21,106.09,0.21,159.13
	C557.88,812.02,557.88,816.26,557.88,822z M559.32,325.31c-0.71,3.1-1.33,4.53-1.33,5.96c-0.07,36.77-0.32,73.54,0.25,110.3
	c0.06,3.92,4.06,9.21,7.71,11.41c24.03,14.47,48.46,28.3,72.79,42.27c8.43,4.84,16.98,9.47,25.39,14.15
	c1.11-1.69,1.86-2.29,1.86-2.9c0.16-37.95,0.46-75.89,0.01-113.83c-0.04-3.53-4.16-8.2-7.62-10.31
	c-18.57-11.28-37.52-21.95-56.38-32.76C588.13,341.64,574.18,333.76,559.32,325.31z M521.89,594.1c0-41.59,0.17-80.33-0.32-119.06
	c-0.04-3.18-3.95-7.39-7.15-9.29c-24.51-14.53-49.29-28.61-74-42.82c-8.11-4.66-16.25-9.27-24.73-14.1
	c-1.04,2.44-1.85,3.44-1.85,4.45c-0.13,37.61-0.36,75.22,0.06,112.82c0.04,3.28,3.69,7.64,6.85,9.59
	c14.47,8.94,29.36,17.22,44.11,25.7C482.96,571.81,501.09,582.18,521.89,594.1z M520.43,759.2c0.73-2.52,1.32-3.59,1.32-4.67
	c0.09-37.13,0.4-74.26-0.23-111.38c-0.07-4.12-4.71-9.61-8.71-11.99c-29.51-17.58-59.38-34.55-89.18-51.64
	c-2.58-1.48-5.46-2.44-8.75-3.88c-0.57,2.47-1.19,3.94-1.2,5.42c-0.07,36.73-0.32,73.47,0.25,110.19c0.06,3.89,4.18,9.12,7.86,11.32
	c24.71,14.83,49.79,29.05,74.79,43.4C504.33,750.42,512.19,754.64,520.43,759.2z M558.64,593.72c30.07-17.32,58.5-33.7,89.2-51.39
	c-30.81-17.69-59.25-34.02-89.2-51.21C558.64,526.18,558.64,558.72,558.64,593.72z M431.78,376.09
	c30.79,17.65,59.48,34.09,89.12,51.08c0-35.18,0-67.69,0-102.27C490.9,342.12,462.59,358.39,431.78,376.09z"/>
</svg>
